<?xml version="1.0" encoding="utf-8"?>
<!-- Generator: Adobe Illustrator 25.0.1, SVG Export Plug-In . SVG Version: 6.00 Build 0)  -->
<svg version="1.1" id="Layer_1" xmlns="http://www.w3.org/2000/svg" xmlns:xlink="http://www.w3.org/1999/xlink" x="0px" y="0px"
	 viewBox="0 0 670.73 310.13" style="enable-background:new 0 0 670.73 310.13;" xml:space="preserve">
<style type="text/css">
	.st0{fill:#353535;}
	.st1{fill:#009FA8;}
</style>
<g id="Capa_2">
	<g id="Capa_1-2">
		<path class="st0" d="M15.8,171.38c-0.086,3.046,0.519,6.071,1.77,8.85c1.126,2.374,2.819,4.435,4.93,6
			c2.181,1.594,4.65,2.752,7.27,3.41c2.912,0.736,5.906,1.096,8.91,1.07c2.995,0.066,5.981-0.339,8.85-1.2
			c2.157-0.65,4.173-1.702,5.94-3.1c1.439-1.16,2.57-2.658,3.29-4.36c0.658-1.585,0.998-3.284,1-5c0-3.453-0.78-6.003-2.34-7.65
			c-1.411-1.544-3.165-2.736-5.12-3.48c-3.667-1.318-7.402-2.436-11.19-3.35c-4.253-1.053-9.497-2.423-15.73-4.11
			c-3.412-0.822-6.675-2.171-9.67-4c-2.354-1.438-4.431-3.287-6.13-5.46c-1.469-1.929-2.561-4.117-3.22-6.45
			c-0.635-2.279-0.955-4.634-0.95-7c-0.107-4.121,0.873-8.197,2.84-11.82c1.858-3.286,4.427-6.115,7.52-8.28
			c3.223-2.24,6.819-3.889,10.62-4.87c3.914-1.046,7.948-1.577,12-1.58c4.508-0.028,8.997,0.588,13.33,1.83
			c3.98,1.126,7.712,2.992,11,5.5c6.707,5.101,10.536,13.128,10.28,21.55H55.23c-0.42-5.813-2.4-9.92-5.94-12.32
			c-3.54-2.4-8.047-3.587-13.52-3.56c-1.911,0.006-3.816,0.197-5.69,0.57c-1.859,0.35-3.651,0.992-5.31,1.9
			c-1.596,0.871-2.966,2.104-4,3.6c-2.548,4.218-1.98,9.615,1.39,13.21c2.262,1.945,4.947,3.335,7.84,4.06l4,1.07
			c2.313,0.633,4.903,1.33,7.77,2.09l8.4,2.21c2.74,0.72,4.7,1.247,5.88,1.58c2.759,0.835,5.364,2.115,7.71,3.79
			c2.116,1.527,3.973,3.384,5.5,5.5c1.451,2.016,2.562,4.255,3.29,6.63c0.708,2.294,1.072,4.68,1.08,7.08
			c0.139,4.532-0.931,9.019-3.1,13c-2.033,3.497-4.846,6.478-8.22,8.71c-3.505,2.338-7.4,4.031-11.5,5
			c-4.3,1.054-8.712,1.584-13.14,1.58c-4.907,0.029-9.795-0.61-14.53-1.9c-4.302-1.14-8.338-3.114-11.88-5.81
			c-3.425-2.671-6.193-6.092-8.09-10c-2.128-4.532-3.211-9.484-3.17-14.49H15.8z"/>
		<path class="st0" d="M142.69,201.46h-14.15v-9.1h-0.25c-1.82,3.337-4.563,6.08-7.9,7.9c-3.236,1.919-6.919,2.953-10.68,3
			c-8.593,0-14.807-2.127-18.64-6.38c-3.833-4.253-5.75-10.677-5.75-19.27v-41.49h14.4v40.06c0,5.733,1.097,9.777,3.29,12.13
			c2.193,2.353,5.27,3.533,9.23,3.54c2.597,0.084,5.182-0.39,7.58-1.39c1.912-0.842,3.6-2.119,4.93-3.73
			c1.31-1.65,2.238-3.569,2.72-5.62c0.562-2.318,0.837-4.695,0.82-7.08v-37.91h14.41L142.69,201.46z"/>
		<path class="st0" d="M199.69,111.22c4.918-0.131,9.814,0.705,14.41,2.46c3.659,1.44,6.959,3.662,9.67,6.51
			c2.455,2.648,4.308,5.797,5.43,9.23c2.274,6.959,2.274,14.461,0,21.42c-1.112,3.455-2.966,6.625-5.43,9.29
			c-2.711,2.848-6.011,5.07-9.67,6.51c-4.596,1.755-9.492,2.591-14.41,2.46h-20.85v32.36H159v-90.24H199.69z M194.26,153.69
			c2.2,0.005,4.397-0.166,6.57-0.51c1.966-0.298,3.855-0.977,5.56-2c1.628-1.001,2.958-2.42,3.85-4.11
			c1.937-4.431,1.937-9.469,0-13.9c-0.893-1.689-2.222-3.109-3.85-4.11c-1.706-1.021-3.595-1.7-5.56-2
			c-2.173-0.343-4.37-0.514-6.57-0.51h-15.42v27L194.26,153.69z"/>
		<path class="st0" d="M285.63,201.46v-9.1h-0.38c-2.044,3.575-5.132,6.439-8.85,8.21c-3.475,1.652-7.272,2.516-11.12,2.53
			c-4.025,0.131-8.038-0.514-11.82-1.9c-2.863-1.101-5.376-2.957-7.27-5.37c-1.858-2.511-3.132-5.404-3.73-8.47
			c-0.746-3.639-1.105-7.346-1.07-11.06v-40.18h17.95V173c0,5.393,0.843,9.417,2.53,12.07s4.687,3.987,9,4
			c4.887,0,8.427-1.453,10.62-4.36c2.193-2.907,3.29-7.687,3.29-14.34v-34.25h17.95v65.34L285.63,201.46z"/>
		<path class="st0" d="M335.55,185.79c2.667,2.613,6.543,3.92,11.63,3.92c3.324,0.087,6.592-0.864,9.35-2.72
			c2.613-1.813,4.213-3.73,4.8-5.75h15.8c-2.527,7.84-6.4,13.427-11.62,16.76s-11.553,5.017-19,5.05
			c-4.748,0.072-9.465-0.763-13.9-2.46c-3.969-1.533-7.551-3.923-10.49-7c-2.929-3.134-5.189-6.833-6.64-10.87
			c-1.601-4.457-2.394-9.164-2.34-13.9c-0.041-4.658,0.772-9.285,2.4-13.65c3.048-8.216,9.372-14.797,17.46-18.17
			c4.299-1.811,8.926-2.713,13.59-2.65c5.036-0.121,10.026,0.984,14.54,3.22c4.018,2.056,7.5,5.021,10.17,8.66
			c2.679,3.721,4.615,7.925,5.7,12.38c1.188,4.749,1.613,9.657,1.26,14.54h-47.13C331.383,178.963,332.857,183.177,335.55,185.79z
			 M355.84,151.41c-2.147-2.36-5.413-3.54-9.8-3.54c-2.461-0.086-4.907,0.411-7.14,1.45c-1.758,0.859-3.31,2.087-4.55,3.6
			c-1.091,1.344-1.906,2.891-2.4,4.55c-0.426,1.4-0.701,2.842-0.82,4.3h29.2C359.483,157.223,357.987,153.77,355.84,151.41
			L355.84,151.41z"/>
		<path class="st0" d="M404,185.22c0.768,1.352,1.827,2.517,3.1,3.41c1.32,0.926,2.797,1.604,4.36,2
			c1.673,0.425,3.394,0.637,5.12,0.63c1.345-0.006,2.686-0.153,4-0.44c1.326-0.271,2.603-0.74,3.79-1.39
			c1.124-0.621,2.094-1.485,2.84-2.53c0.799-1.177,1.198-2.579,1.14-4c0-2.667-1.79-4.69-5.37-6.07c-4.897-1.692-9.91-3.029-15-4
			c-2.613-0.587-5.163-1.283-7.65-2.09c-2.348-0.734-4.581-1.798-6.63-3.16c-1.909-1.272-3.509-2.957-4.68-4.93
			c-1.239-2.218-1.85-4.731-1.77-7.27c-0.152-3.621,0.699-7.213,2.46-10.38c1.593-2.645,3.833-4.841,6.51-6.38
			c2.824-1.606,5.902-2.719,9.1-3.29c3.416-0.637,6.885-0.955,10.36-0.95c3.458-0.011,6.909,0.324,10.3,1
			c3.147,0.606,6.163,1.76,8.91,3.41c2.622,1.611,4.847,3.792,6.51,6.38c1.843,3.026,2.908,6.462,3.1,10h-17.06
			c-0.253-3.453-1.56-5.787-3.92-7c-2.592-1.272-5.453-1.9-8.34-1.83c-1.099,0.005-2.198,0.068-3.29,0.19
			c-1.109,0.109-2.194,0.385-3.22,0.82c-0.951,0.41-1.793,1.037-2.46,1.83c-0.708,0.919-1.063,2.062-1,3.22
			c-0.043,1.509,0.61,2.954,1.77,3.92c1.364,1.11,2.929,1.945,4.61,2.46c2.135,0.696,4.309,1.267,6.51,1.71
			c2.44,0.507,4.927,1.053,7.46,1.64c2.585,0.584,5.139,1.302,7.65,2.15c2.363,0.783,4.597,1.912,6.63,3.35
			c1.917,1.367,3.514,3.134,4.68,5.18c1.249,2.351,1.859,4.989,1.77,7.65c0.348,7.197-3.23,14.017-9.35,17.82
			c-2.92,1.826-6.156,3.091-9.54,3.73c-3.599,0.716-7.26,1.074-10.93,1.07c-3.744,0.026-7.481-0.336-11.15-1.08
			c-3.423-0.678-6.698-1.962-9.67-3.79c-2.842-1.762-5.238-4.158-7-7c-1.94-3.318-2.975-7.087-3-10.93h17.06
			C402.697,182.012,403.142,183.716,404,185.22z"/>
		<path class="st0" d="M492.65,136.12v12H479.5v32.35c0,3.033,0.507,5.057,1.52,6.07c1.013,1.013,3.037,1.52,6.07,1.52
			c1.013,0,1.983-0.043,2.91-0.13c0.89-0.078,1.774-0.205,2.65-0.38v13.9c-1.675,0.27-3.365,0.44-5.06,0.51
			c-1.853,0.08-3.663,0.123-5.43,0.13c-2.644,0.01-5.285-0.181-7.9-0.57c-2.309-0.319-4.538-1.069-6.57-2.21
			c-1.908-1.105-3.465-2.727-4.49-4.68c-1.201-2.49-1.764-5.239-1.64-8v-38.51h-10.87v-12h10.87v-19.6h17.94v19.59L492.65,136.12z"
			/>
		<path class="st0" d="M501.75,126v-14.78h17.95V126H501.75z M519.7,136.11v65.34h-17.95v-65.33L519.7,136.11z"/>
		<path class="st0" d="M569.74,136.12v12H556.6v32.35c0,3.033,0.507,5.057,1.52,6.07s3.037,1.52,6.07,1.52
			c1.013,0,1.983-0.043,2.91-0.13c0.89-0.078,1.774-0.205,2.65-0.38v13.9c-1.675,0.27-3.365,0.44-5.06,0.51
			c-1.853,0.08-3.663,0.123-5.43,0.13c-2.644,0.01-5.285-0.181-7.9-0.57c-2.309-0.319-4.538-1.069-6.57-2.21
			c-1.908-1.105-3.465-2.727-4.49-4.68c-1.201-2.49-1.764-5.239-1.64-8v-38.51h-10.88v-12h10.87v-19.6h17.95v19.59L569.74,136.12z"
			/>
		<path class="st0" d="M578.72,154.63c2.94-8.197,9.308-14.704,17.44-17.82c4.435-1.697,9.152-2.532,13.9-2.46
			c4.78-0.072,9.531,0.763,14,2.46c8.164,3.088,14.561,9.602,17.5,17.82c1.652,4.556,2.465,9.374,2.4,14.22
			c0.069,4.827-0.744,9.626-2.4,14.16c-1.493,4.043-3.82,7.726-6.83,10.81c-3.037,3.043-6.698,5.39-10.73,6.88
			c-4.479,1.656-9.225,2.47-14,2.4c-4.742,0.07-9.456-0.744-13.9-2.4c-3.993-1.51-7.614-3.859-10.62-6.89
			c-2.986-3.09-5.289-6.773-6.76-10.81c-1.657-4.534-2.47-9.333-2.4-14.16C576.255,163.997,577.068,159.183,578.72,154.63z
			 M595,176.5c0.459,2.369,1.336,4.638,2.59,6.7c1.202,1.962,2.876,3.591,4.87,4.74c2.324,1.254,4.941,1.865,7.58,1.77
			c2.661,0.09,5.299-0.52,7.65-1.77c2.019-1.136,3.716-2.767,4.93-4.74c1.253-2.063,2.13-4.331,2.59-6.7
			c0.509-2.518,0.764-5.081,0.76-7.65c0.001-2.589-0.253-5.171-0.76-7.71c-0.446-2.373-1.324-4.644-2.59-6.7
			c-1.239-1.953-2.93-3.579-4.93-4.74c-2.338-1.288-4.982-1.921-7.65-1.83c-5.039-0.25-9.813,2.269-12.45,6.57
			c-1.267,2.056-2.145,4.327-2.59,6.7c-0.507,2.539-0.761,5.121-0.76,7.71C594.236,171.419,594.491,173.982,595,176.5z"/>
		<path class="st1" d="M23.25,289v19.46H3.41V289H23.25z"/>
		<path class="st1" d="M69,254.9c-2.547-0.077-5.057,0.621-7.2,2c-1.941,1.308-3.561,3.038-4.74,5.06
			c-1.239,2.112-2.115,4.418-2.59,6.82c-0.5,2.432-0.755,4.907-0.76,7.39c0.008,2.42,0.262,4.832,0.76,7.2
			c0.465,2.328,1.298,4.566,2.47,6.63c1.124,1.969,2.705,3.639,4.61,4.87c2.121,1.317,4.584,1.978,7.08,1.9
			c4.3,0,7.607-1.2,9.92-3.6c2.448-2.676,3.975-6.064,4.36-9.67h17.31c-1.18,8.667-4.55,15.28-10.11,19.84
			c-5.56,4.56-12.68,6.833-21.36,6.82c-4.603,0.054-9.173-0.781-13.46-2.46c-3.925-1.533-7.48-3.882-10.43-6.89
			c-2.919-3.031-5.198-6.619-6.7-10.55c-1.639-4.296-2.453-8.862-2.4-13.46c-0.038-4.801,0.719-9.576,2.24-14.13
			c1.369-4.16,3.586-7.99,6.51-11.25c2.914-3.208,6.495-5.74,10.49-7.42c4.49-1.838,9.309-2.74,14.16-2.65
			c3.782-0.012,7.548,0.5,11.19,1.52c3.454,0.948,6.709,2.51,9.61,4.61c6.027,4.331,9.694,11.222,9.92,18.64h-17.6
			C81.1,258.64,76.673,254.9,69,254.9z"/>
		<path class="st1" d="M110.71,261.66c2.94-8.197,9.308-14.704,17.44-17.82c4.435-1.697,9.152-2.532,13.9-2.46
			c4.78-0.072,9.531,0.763,14,2.46c8.163,3.088,14.561,9.602,17.5,17.82c1.652,4.556,2.465,9.374,2.4,14.22
			c0.069,4.827-0.744,9.626-2.4,14.16c-1.493,4.043-3.82,7.726-6.83,10.81c-3.034,3.041-6.691,5.389-10.72,6.88
			c-4.479,1.656-9.225,2.47-14,2.4c-4.742,0.07-9.456-0.744-13.9-2.4c-3.993-1.51-7.614-3.859-10.62-6.89
			c-2.993-3.097-5.3-6.791-6.77-10.84c-1.657-4.534-2.47-9.333-2.4-14.16C108.249,271.007,109.062,266.203,110.71,261.66z
			 M127,283.53c0.459,2.369,1.336,4.638,2.59,6.7c1.202,1.962,2.876,3.591,4.87,4.74c2.324,1.254,4.941,1.865,7.58,1.77
			c2.662,0.101,5.303-0.499,7.66-1.74c2.019-1.136,3.716-2.767,4.93-4.74c1.253-2.063,2.13-4.331,2.59-6.7
			c0.509-2.518,0.764-5.081,0.76-7.65c0.001-2.589-0.253-5.171-0.76-7.71c-0.446-2.373-1.324-4.644-2.59-6.7
			c-1.239-1.953-2.93-3.579-4.93-4.74c-2.338-1.288-4.982-1.921-7.65-1.83c-5.039-0.25-9.813,2.269-12.45,6.57
			c-1.267,2.056-2.145,4.327-2.59,6.7c-0.507,2.539-0.761,5.121-0.76,7.71C126.245,278.469,126.496,281.021,127,283.53z"/>
		<path class="st1" d="M205,243.15V252h0.25c2.206-3.232,5.124-5.914,8.53-7.84c3.51-1.898,7.451-2.856,11.44-2.78
			c3.901-0.048,7.764,0.772,11.31,2.4c3.556,1.755,6.328,4.776,7.77,8.47c2.105-3.025,4.791-5.601,7.9-7.58
			c3.519-2.245,7.627-3.39,11.8-3.29c3.246-0.029,6.481,0.395,9.61,1.26c2.794,0.751,5.384,2.117,7.58,4
			c2.201,1.994,3.892,4.487,4.93,7.27c1.26,3.461,1.86,7.128,1.77,10.81v43.73H270v-37c0-2.193-0.083-4.257-0.25-6.19
			c-0.119-1.763-0.592-3.484-1.39-5.06c-0.768-1.434-1.935-2.615-3.36-3.4c-1.859-0.926-3.925-1.36-6-1.26
			c-2.139-0.097-4.262,0.405-6.13,1.45c-1.525,0.931-2.788,2.236-3.67,3.79c-0.914,1.645-1.514,3.446-1.77,5.31
			c-0.295,1.986-0.442,3.992-0.44,6v36.4H229v-36.65c0-1.94-0.043-3.857-0.13-5.75c-0.063-1.794-0.425-3.565-1.07-5.24
			c-0.62-1.587-1.726-2.938-3.16-3.86c-1.988-1.092-4.246-1.595-6.51-1.45c-1.136,0.048-2.262,0.239-3.35,0.57
			c-1.467,0.434-2.828,1.166-4,2.15c-1.448,1.242-2.594,2.798-3.35,4.55c-1.019,2.459-1.493,5.11-1.39,7.77v37.92h-17.98v-65.35H205
			z"/>
		<path class="st0" d="M665.23,40.77H542.05c-1.304-0.001-2.566-0.465-3.56-1.31l-35-29.77c-2.314-1.968-2.595-5.439-0.627-7.753
			c1.044-1.228,2.575-1.936,4.187-1.937h123.18c1.304,0.001,2.566,0.465,3.56,1.31l35,29.77c2.314,1.968,2.595,5.439,0.627,7.753
			C668.373,40.061,666.842,40.769,665.23,40.77z M544.07,29.77h106.2L628.21,11H522L544.07,29.77z"/>
		<path class="st0" d="M603.14,88.23c-31.555,0.076-59.217-21.077-67.41-51.55c-0.779-2.936,0.97-5.947,3.906-6.726
			c0.461-0.122,0.937-0.184,1.414-0.184h124.18c3.038-0.002,5.502,2.459,5.504,5.496c0,0.477-0.061,0.953-0.184,1.414
			C662.357,67.153,634.695,88.306,603.14,88.23z M548.67,40.77c12.406,30.083,46.85,44.413,76.933,32.007
			c14.505-5.982,26.025-17.502,32.007-32.007H548.67z"/>
		<path class="st0" d="M417.87,40.77H294.69c-1.304-0.001-2.566-0.465-3.56-1.31l-35-29.77c-2.314-1.968-2.595-5.439-0.627-7.753
			c1.044-1.228,2.575-1.936,4.187-1.937h123.18c1.304,0.001,2.566,0.465,3.56,1.31l35,29.77c2.314,1.968,2.595,5.439,0.627,7.753
			C421.013,40.061,419.482,40.769,417.87,40.77z M296.71,29.77h106.2L380.85,11h-106.2L296.71,29.77z"/>
		<path class="st0" d="M356.28,88.23c-31.423-0.002-58.9-21.175-66.91-51.56c-0.773-2.938,0.981-5.946,3.919-6.719
			c0.457-0.12,0.928-0.181,1.401-0.181h123.18c3.038-0.001,5.501,2.461,5.501,5.499c0,0.473-0.061,0.944-0.181,1.401
			C415.18,67.055,387.703,88.228,356.28,88.23z M302.28,40.77c12.004,29.823,45.911,44.269,75.735,32.265
			c14.698-5.916,26.349-17.567,32.265-32.265H302.28z"/>
		<path class="st1" d="M546.41,31.91c-0.792-1.019-1.918-1.727-3.18-2l-33.62-28.6c-0.994-0.845-2.256-1.309-3.56-1.31H382.87
			c-3.038,0.002-5.499,2.465-5.497,5.503c0.001,1.612,0.709,3.143,1.937,4.187L413,38.38c11.043,36.957,49.955,57.964,86.912,46.921
			c23.151-6.918,41.082-25.311,47.408-48.631C547.77,35.028,547.434,33.27,546.41,31.91z M504,11l22.1,18.77H419.89L397.83,11H504z
			 M480,77.23c-23.881,0.051-45.415-14.363-54.47-36.46h108.9C525.38,62.854,503.866,77.265,480,77.23z"/>
		<path class="st1" d="M298.16,34.72c0-0.06,0-0.11,0-0.17c-0.044-0.186-0.097-0.37-0.16-0.55l-0.06-0.23
			c-0.051-0.18-0.111-0.356-0.18-0.53l-0.07-0.18c-0.098-0.227-0.212-0.448-0.34-0.66l-0.09-0.13c-0.08-0.12-0.16-0.24-0.24-0.36
			l-0.12-0.13l-0.15-0.18c-0.135-0.151-0.279-0.295-0.43-0.43l-0.09-0.09l-35-29.77c-0.989-0.841-2.242-1.305-3.54-1.31H134.51
			c-3.038,0.002-5.499,2.465-5.497,5.503c0.001,1.612,0.709,3.143,1.937,4.187l35,29.77c0.391,0.322,0.826,0.587,1.29,0.79
			c8.841,28.435,35.092,47.86,64.87,48c31,0,58.07-21.21,65.92-51.58c0-0.06,0-0.12,0-0.19v-0.24c0.033-0.189,0.057-0.379,0.07-0.57
			c0-0.06,0-0.13,0-0.19C298.138,35.228,298.158,34.974,298.16,34.72z M149.47,11h106.2l22.07,18.77H171.53L149.47,11z M232.1,77.23
			c-23.475-0.126-44.489-14.583-53-36.46h106.03C276.615,62.658,255.585,77.116,232.1,77.23z"/>
		<path class="st0" d="M170.51,40.77H47.33c-1.304-0.001-2.566-0.465-3.56-1.31L8.76,9.69C6.446,7.722,6.165,4.251,8.133,1.937
			C9.179,0.706,10.714-0.002,12.33,0h123.18c1.304,0.001,2.566,0.465,3.56,1.31l35,29.77c2.314,1.968,2.595,5.439,0.627,7.753
			C173.653,40.061,172.122,40.769,170.51,40.77z M49.35,29.77h106.2L133.49,11H27.28L49.35,29.77z"/>
		<path class="st0" d="M109.42,88.23C78.122,88.154,50.823,66.954,43,36.65c-0.768-2.939,0.992-5.944,3.931-6.711
			c0.453-0.118,0.92-0.178,1.389-0.179h122.19c3.038,0.001,5.499,2.464,5.499,5.501c0,0.469-0.06,0.935-0.179,1.389
			C168.008,66.951,140.714,88.149,109.42,88.23z M55.91,40.77c11.637,29.547,45.024,44.066,74.571,32.429
			c14.839-5.844,26.584-17.59,32.429-32.429H55.91z"/>
	</g>
</g>
</svg>
